HIERARCHY
ROOT joint_Root
{
	OFFSET 0.0 0.0 0.0
	CHANNELS 6 Xposition Yposition Zposition Zrotation Xrotation Yrotation 
	JOINT Hips
	{
		OFFSET 4.5925 91.4895 -427.239
		CHANNELS 6 Xposition Yposition Zposition Zrotation Xrotation Yrotation 
		JOINT Spine
		{
			OFFSET 15.7357 0.0 0.0
			CHANNELS 6 Xposition Yposition Zposition Zrotation Xrotation Yrotation 
			JOINT Chest
			{
				OFFSET 8.98455 -0.406207 0.0
				CHANNELS 6 Xposition Yposition Zposition Zrotation Xrotation Yrotation 
				JOINT Neck
				{
					OFFSET 16.3773 0.0 0.0
					CHANNELS 6 Xposition Yposition Zposition Zrotation Xrotation Yrotation 
					JOINT Head
					{
						OFFSET 6.45672 0.0 0.0
						CHANNELS 6 Xposition Yposition Zposition Zrotation Xrotation Yrotation 
						End Site
						{
							OFFSET 0.0 0.0 0.0
						}
					}
				}
				JOINT Shoulder_L
				{
					OFFSET 12.9942 -0.242716 4.98039
					CHANNELS 6 Xposition Yposition Zposition Zrotation Xrotation Yrotation 
					JOINT UpperArm_L
					{
						OFFSET 5.34809 0.0 0.0
						CHANNELS 6 Xposition Yposition Zposition Zrotation Xrotation Yrotation 
						JOINT LowerArm_L
						{
							OFFSET 24.3286 1.87007e-05 0.0
							CHANNELS 6 Xposition Yposition Zposition Zrotation Xrotation Yrotation 
							JOINT Hand_L
							{
								OFFSET 22.2916 0.0 0.0
								CHANNELS 6 Xposition Yposition Zposition Zrotation Xrotation Yrotation 
								End Site
								{
									OFFSET 0.0 0.0 0.0
								}
							}
						}
					}
				}
				JOINT Shoulder_R
				{
					OFFSET 12.9945 -0.242716 -4.98039
					CHANNELS 6 Xposition Yposition Zposition Zrotation Xrotation Yrotation 
					JOINT UpperArm_R
					{
						OFFSET -5.34813 0.0 0.0
						CHANNELS 6 Xposition Yposition Zposition Zrotation Xrotation Yrotation 
						JOINT LowerArm_R
						{
							OFFSET -24.3289 0.000322201 0.0
							CHANNELS 6 Xposition Yposition Zposition Zrotation Xrotation Yrotation 
							JOINT Hand_R
							{
								OFFSET -22.2915 -0.000108084 0.0
								CHANNELS 6 Xposition Yposition Zposition Zrotation Xrotation Yrotation 
								End Site
								{
									OFFSET 0.0 0.0 0.0
								}
							}
						}
					}
				}
			}
		}
		JOINT UpperLeg_L
		{
			OFFSET -2.19248 -6.46944 0.0
			CHANNELS 6 Xposition Yposition Zposition Zrotation Xrotation Yrotation 
			JOINT LowerLeg_L
			{
				OFFSET 39.0811 0.0 -1.23785e-05
				CHANNELS 6 Xposition Yposition Zposition Zrotation Xrotation Yrotation 
				JOINT Foot_L
				{
					OFFSET 40.9854 0.0 -1.26872e-05
					CHANNELS 6 Xposition Yposition Zposition Zrotation Xrotation Yrotation 
					JOINT Toes_L
					{
						OFFSET 11.7543 0.0 0.0
						CHANNELS 6 Xposition Yposition Zposition Zrotation Xrotation Yrotation 
						End Site
						{
							OFFSET 0.0 0.0 0.0
						}
					}
				}
			}
		}
		JOINT UpperLeg_R
		{
			OFFSET -2.19251 6.46944 0.0
			CHANNELS 6 Xposition Yposition Zposition Zrotation Xrotation Yrotation 
			JOINT LowerLeg_R
			{
				OFFSET -39.0811 -0.00228153 -0.0401928
				CHANNELS 6 Xposition Yposition Zposition Zrotation Xrotation Yrotation 
				JOINT Foot_R
				{
					OFFSET -40.9854 0.0 0.0
					CHANNELS 6 Xposition Yposition Zposition Zrotation Xrotation Yrotation 
					JOINT Toes_R
					{
						OFFSET -11.7543 0.0 0.0
						CHANNELS 6 Xposition Yposition Zposition Zrotation Xrotation Yrotation 
						End Site
						{
							OFFSET 0.0 0.0 0.0
						}
					}
				}
			}
		}
	}
}
MOTION
Frames:	4
Frame Time:	0.0333333
0.000000 0.000000 0.000000 0.000000 0.000000 -0.000000 -2.559380 90.922800 -4.754380 88.323200 -1.743560 10.260400 15.735700 0.000005 -0.000001 88.267900 76.346000 -88.471500 8.984550 -0.406207 -0.000000 19.529500 -0.828578 -0.265887 16.377300 -0.000001 -0.000001 5.176610 -3.061270 1.944230 6.456720 -0.000001 -0.000000 -13.294300 -2.740360 3.192730 12.994200 -0.242716 4.980390 -91.152300 6.799320 -80.357700 5.348090 -0.000007 -0.000001 -60.400400 29.238700 -27.892600 24.328600 0.000019 0.000005 11.417500 23.374500 -26.977400 22.291600 -0.000001 0.000005 9.572200 5.248440 1.473780 12.994500 -0.242716 -4.980390 89.135500 9.947030 -85.007700 -5.348130 -0.000001 -0.000004 -58.859200 30.788900 -25.188300 -24.328900 0.000322 -0.000009 5.028430 9.008020 -29.339700 -22.291500 -0.000108 -0.000004 17.677300 5.381090 -2.332560 -2.192480 -6.469440 -0.000000 -172.954000 -12.060900 -4.519220 39.081100 -0.000007 -0.000012 -0.124338 0.198276 32.091900 40.985400 -0.000006 -0.000013 -0.184705 6.744200 -66.980800 11.754300 -0.000000 0.000003 -0.000218 -0.001989 -16.652400 -2.192510 6.469440 -0.000001 177.108000 23.275800 177.637000 -39.081100 -0.002282 -0.040193 -0.150946 0.263059 30.385700 -40.985400 0.000008 0.000006 5.666430 15.452800 -68.045400 -11.754300 -0.000006 -0.000006 -0.001813 -0.026349 -17.644500
0.000000 0.000000 0.000000 0.000000 0.000000 -0.000000 -2.564960 90.918400 -4.838250 88.341800 -1.758300 10.251000 15.735700 0.000005 -0.000001 88.259300 76.328200 -88.478500 8.984550 -0.406207 -0.000000 19.564800 -0.835190 -0.295479 16.377300 -0.000001 -0.000001 5.462540 -3.074810 1.990820 6.456720 -0.000001 -0.000000 -13.323500 -2.804100 3.246620 12.994200 -0.242716 4.980390 -91.145700 6.679910 -80.244500 5.348090 -0.000007 -0.000001 -60.452100 28.956700 -28.019700 24.328600 0.000019 0.000005 11.450900 22.668600 -27.725500 22.291600 -0.000001 0.000005 9.769810 5.261500 1.126740 12.994500 -0.242716 -4.980390 89.126400 9.910930 -84.937000 -5.348130 -0.000001 -0.000004 -58.825100 30.417000 -25.195200 -24.328900 0.000322 -0.000009 5.191930 8.802330 -30.706400 -22.291500 -0.000108 -0.000004 17.781300 5.385510 -2.472380 -2.192480 -6.469440 -0.000000 -172.977000 -12.102100 -4.594240 39.081100 -0.000007 -0.000012 -0.121246 0.193191 32.112500 40.985400 -0.000006 -0.000013 -0.178188 6.756970 -66.934500 11.754300 -0.000000 0.000003 -0.000221 -0.002017 -16.653400 -2.192510 6.469440 -0.000001 177.126000 23.291800 177.528000 -39.081100 -0.002282 -0.040193 -0.149624 0.260277 30.436400 -40.985400 0.000008 0.000006 5.694680 15.473900 -68.010300 -11.754300 -0.000006 -0.000006 -0.001759 -0.025661 -17.616500
0.000000 0.000000 0.000000 0.000000 0.000000 -0.000000 -2.560410 90.920700 -4.913020 88.347200 -1.783360 10.241300 15.735700 0.000005 -0.000001 88.271200 76.315200 -88.494900 8.984550 -0.406207 -0.000000 19.591000 -0.830878 -0.305119 16.377300 -0.000001 -0.000001 5.655230 -3.068070 2.027710 6.456720 -0.000001 -0.000000 -13.400300 -2.811570 3.214760 12.994200 -0.242716 4.980390 -91.134200 6.586130 -80.206600 5.348090 -0.000007 -0.000001 -60.445100 28.621100 -28.062800 24.328600 0.000019 0.000005 11.661000 22.013500 -28.837500 22.291600 -0.000001 0.000005 9.970280 5.269490 0.912055 12.994500 -0.242716 -4.980390 89.122500 9.816450 -84.866500 -5.348130 -0.000001 -0.000004 -58.882400 29.897800 -25.201800 -24.328900 0.000322 -0.000009 5.644310 9.022640 -32.224200 -22.291500 -0.000108 -0.000004 17.988900 5.388380 -2.563790 -2.192480 -6.469440 -0.000000 -172.990000 -12.116700 -4.661400 39.081100 -0.000007 -0.000012 -0.125288 0.199688 32.105300 40.985400 -0.000006 -0.000013 -0.180321 6.740720 -66.869000 11.754300 -0.000000 0.000003 -0.000228 -0.002071 -16.655400 -2.192510 6.469440 -0.000001 177.143000 23.279800 177.455000 -39.081100 -0.002282 -0.040193 -0.152611 0.265321 30.440200 -40.985400 0.000008 0.000006 5.698520 15.483100 -67.957100 -11.754300 -0.000006 -0.000006 -0.001878 -0.027175 -17.678100
0.000000 0.000000 0.000000 0.000000 0.000000 -0.000000 -2.563080 90.926700 -5.001910 88.351000 -1.753940 10.233700 15.735700 0.000005 -0.000001 88.216700 76.307000 -88.448400 8.984550 -0.406207 -0.000000 19.606600 -0.857715 -0.316531 16.377300 -0.000001 -0.000001 5.856320 -3.041380 2.084150 6.456720 -0.000001 -0.000000 -13.574600 -2.776740 3.192890 12.994200 -0.242716 4.980390 -91.118600 6.460680 -80.155900 5.348090 -0.000007 -0.000001 -60.547000 28.019900 -28.067200 24.328600 0.000019 0.000005 11.992800 21.414800 -30.190900 22.291600 -0.000001 0.000005 10.107600 5.277510 0.694455 12.994500 -0.242716 -4.980390 89.114600 9.724200 -84.771900 -5.348130 -0.000001 -0.000004 -58.823600 29.434800 -25.298100 -24.328900 0.000322 -0.000009 5.996130 9.024460 -33.812200 -22.291500 -0.000108 -0.000004 18.312700 5.393630 -2.731550 -2.192480 -6.469440 -0.000000 -173.009000 -12.150500 -4.725530 39.081100 -0.000007 -0.000012 -0.120542 0.192282 32.083900 40.985400 -0.000006 -0.000013 -0.159769 6.780730 -66.794800 11.754300 -0.000000 0.000003 -0.000225 -0.002043 -16.654400 -2.192510 6.469440 -0.000001 177.153000 23.389800 177.398000 -39.081100 -0.002282 -0.040193 -0.148130 0.257879 30.422300 -40.985400 0.000008 0.000006 5.731210 15.554400 -67.899700 -11.754300 -0.000006 -0.000006 -0.001855 -0.026887 -17.666400
